 http://www.shotpix.com/images/68461438655022300179.jpg


 
http://www.imdb.com/title/tt1321870/


Plot: Los Angeles, 1949: A secret crew of police officers led by two determined sergeants work together in an effort to take down the ruthless mob king Mickey Cohen who runs the city. 



Director:
 Ruben Fleischer 

Writers:
 Will Beall, Paul Lieberman (book) 

Stars:
 Sean Penn, Ryan Gosling, Emma Stone

Genres:
  Action |  Crime |  Drama |  Thriller 

Country:
 USA 

Language:
 English 



Format                                   : AVI
Format/Info                              : Audio Video Interleave
File size                                : 701 MiB
Duration                                 : 1h 52mn
Overall bit rate                         : 868 Kbps
Writing application                      : Lavf54.59.103

Video
ID                                       : 0
Format                                   : MPEG-4 Visual
Format profile                           : Simple@L3
Format settings, BVOP                    : No
Format settings, QPel                    : No
Format settings, GMC                     : No warppoints
Format settings, Matrix                  : Default (H.263)
Codec ID                                 : XVID
Codec ID/Hint                            : XviD
Duration                                 : 1h 52mn
Bit rate                                 : 729 Kbps
Width                                    : 640 pixels
Height                                   : 272 pixels
Display aspect ratio                     : 2.40:1
Frame rate                               : 23.976 fps
Color space                              : YUV
Chroma subsampling                       : 4:2:0
Bit depth                                : 8 bits
Scan type                                : Progressive
Compression mode                         : Lossy
Bits/(Pixel*Frame)                       : 0.175
Stream size                              : 589 MiB (84%)
Writing library                          : XviD 64

Audio
ID                                       : 1
Format                                   : AC-3
Format/Info                              : Audio Coding 3
Mode extension                           : CM (complete main)
Format settings, Endianness              : Big
Codec ID                                 : 2000
Duration                                 : 1h 52mn
Bit rate mode                            : Constant
Bit rate                                 : 128 Kbps
Channel(s)                               : 2 channels
Channel positions                        : Front: L R
Sampling rate                            : 48.0 KHz
Bit depth                                : 16 bits
Compression mode                         : Lossy
Stream size                              : 103 MiB (15%)
Alignment                                : Aligned on interleaves
Interleave, duration                     : 32 ms (0.77 video frame)




    	
    	http://www.shotpix.com/images/59509937346155445225.png
    	http://www.shotpix.com/images/23994588747127214771.png
    	http://www.shotpix.com/images/26202428072197732150.png
    	http://www.shotpix.com/images/16166672029240441291.png
    	http://www.shotpix.com/images/33943502429103551894.png